<svg xmlns="http://www.w3.org/2000/svg" viewBox="0 0 438.01 139.95"><defs><style>.cls-1{fill:#fff;}.cls-2{fill:#d73f09;}</style></defs><title>osu</title><g id="Layer_2" data-name="Layer 2"><g id="Art"><path class="cls-1" d="M107.46,48.54a42.89,42.89,0,0,0-3.65-12,21,21,0,0,0-5.17-6.77,15.23,15.23,0,0,0-9.89-3.63,17.78,17.78,0,0,0-5,.69l5.34-11.42L78.2,7.69H70.34c-1.34,0-2.8-1-4.66-2.3C62.39,3.11,57.89,0,50.29,0,43.86,0,38.8,1.79,34.79,5.47c0,0-26,25.34-26.12,25.49h0a21.75,21.75,0,0,0-3.93,5.61,43.22,43.22,0,0,0-3.65,12,68.77,68.77,0,0,0,1,29.14,77.55,77.55,0,0,0,14,27.62c8.22,10.57,19.45,20.17,33.39,28.54l4.79,2.87,4.78-2.87c13.94-8.37,25.18-18,33.39-28.54a77.55,77.55,0,0,0,14-27.62A68.77,68.77,0,0,0,107.46,48.54Z"/><path d="M46.59,37.83H32.1L30.79,59.65a8.44,8.44,0,0,1,2.31.69Z"/><path d="M35.33,87.31l-.12,0V89l.72.31a11.32,11.32,0,0,0,4.5.8,11.23,11.23,0,0,0,4.81-.93V87.46a10,10,0,0,1-4.81,1.08,9.82,9.82,0,0,1-4.5-.94Z"/><path d="M35.93,94.1l-.6-.29-.12,0v1.77l.72.31a11.32,11.32,0,0,0,4.5.8,12,12,0,0,0,3.69-.51V94.44a10,10,0,0,1-3.69.6A9.82,9.82,0,0,1,35.93,94.1Z"/><path d="M35.93,100.58l-.6-.28-.12-.06V102c.23.11.47.22.72.32a11.5,11.5,0,0,0,4.5.8,14.88,14.88,0,0,0,2.15-.15v-1.63a12,12,0,0,1-2.15.18A9.67,9.67,0,0,1,35.93,100.58Z"/><path d="M52.22,7.77A14.33,14.33,0,0,1,55.68,9a21,21,0,0,1,3.14,1.95,49.16,49.16,0,0,0,4.82,3.35V11.56c-1.23-.67-2.45-1.48-3.72-2.28a23.47,23.47,0,0,0-3.56-1.84,16.21,16.21,0,0,0-3.91-1,18.22,18.22,0,0,0-4-.08l-.23,0V7.42h.27A18.14,18.14,0,0,1,52.22,7.77Z"/><path d="M105.88,48.81a41.12,41.12,0,0,0-3.5-11.52A19.26,19.26,0,0,0,97.61,31a13.65,13.65,0,0,0-8.86-3.25,15.24,15.24,0,0,0-11.13,4.56l-4.83-5.21.78-1.68h6.57l-.78,1.68h2.52L87.09,16l-9.4-6.68H70.34c-1.84,0-3.49-1.14-5.57-2.59-3.29-2.27-7.38-5.1-14.48-5.1-6,0-10.71,1.64-14.41,5L19.21,22.9h0s-9.37,9.15-9.39,9.18a20.27,20.27,0,0,0-3.64,5.21,41.12,41.12,0,0,0-3.5,11.52,67.16,67.16,0,0,0,1,28.45,76,76,0,0,0,13.74,27.06c8.09,10.41,19.17,19.88,33,28.15l4,2.37,3.95-2.37c13.78-8.27,24.87-17.74,33-28.15a76,76,0,0,0,13.74-27.06A67.16,67.16,0,0,0,105.88,48.81ZM37.45,8.3c1.19-1.09,4.81-4.42,12.84-4.42,6.39,0,10,2.5,13.18,4.7,2.32,1.61,4.32,3,6.87,3H77l7.26,5.16-3,6.43H74.69a4.49,4.49,0,0,1-2.62-1.05,4.78,4.78,0,0,1-1.61-3.31H69.31a6.58,6.58,0,0,0,.3,2.36,6,6,0,0,0,1.25,2.16,6.54,6.54,0,0,0,.82.76l-1.61,3.46,4.44,4.81H71.14l-5.85-5H63.93l4.3,5H59.59l-5-5h-3a11.81,11.81,0,0,0,1-4.24c0-.27,0-.53,0-.8l-.06-.8,0-.39-.07-.4-.14-.78a12.24,12.24,0,0,0-1.13-3,11.72,11.72,0,0,0-1.88-2.53l-.27-.28-.3-.26-.59-.5a12.27,12.27,0,0,0-1.3-.87,11.11,11.11,0,0,0-4.57-1.46A10.39,10.39,0,0,0,40.93,11v1.1a10.18,10.18,0,0,1,5.21,1.62,10.73,10.73,0,0,1,1.1.81c.17.15.33.31.49.47l.25.23.22.26a9.92,9.92,0,0,1,1.5,2.25,10.35,10.35,0,0,1,.83,2.54l.09.67,0,.33v1c0,.22,0,.44,0,.66a9.54,9.54,0,0,1-1.88,4.86l-1.35,1.81h6.24l2.71,2.71H30.67V22.9H22.48ZM25.89,41.55A8.47,8.47,0,0,1,18.5,47.9c-.27,0-.55,0-.84,0A8.49,8.49,0,0,1,9.2,40c0-.19,0-.38,0-.57a8.52,8.52,0,0,1,2.68-6.18l8.28-8.08h8.26v8.13Zm76.82,35.13a70.18,70.18,0,0,1-6.83,16.54h0L95.4,94l-.36.61-.48.79-.42.67-.45.73c-.28.43-.56.86-.85,1.29l-.34.5-.65.94-.38.54-.69,1-.34.47c-.35.46-.69.92-1,1.38h0l-1,1.27a101.25,101.25,0,0,1-13,13.3,130.14,130.14,0,0,1-11.92,9c-2,1.37-4.16,2.72-6.35,4l-2.78,1.67h0l-2.79-1.67c-13.53-8.12-24.4-17.4-32.32-27.59l-.68-.9-.46-.6-.81-1.12-.28-.39c-.31-.43-.6-.86-.9-1.29l-.15-.22c-.32-.48-.64-1-1-1.44a.35.35,0,0,0,0-.08,71.47,71.47,0,0,1-9-20.2A64.74,64.74,0,0,1,4.92,49.2,45.91,45.91,0,0,1,7,41.1a10.85,10.85,0,0,0,1.91,4.64c-.32,1.24-.59,2.55-.85,4q-.59,3.42-.82,6.79l15.05,7a8.53,8.53,0,0,1,.85-1.15,9.93,9.93,0,0,1,.73-.72l-9.1-11.87a10.42,10.42,0,0,0,5,.18L26,60.34a8.44,8.44,0,0,1,2.31-.69l-.93-15.47a10.18,10.18,0,0,0,.76-2l2.2-7.25.08-.26H78.61l.34-.38a12.75,12.75,0,0,1,9.8-4.2,11.44,11.44,0,0,1,7.4,2.73,17.09,17.09,0,0,1,4.19,5.53,39.17,39.17,0,0,1,3.29,10.89A64.74,64.74,0,0,1,102.71,76.68Z"/><path d="M77.51,17.42a1.23,1.23,0,1,0-1.23-1.23A1.23,1.23,0,0,0,77.51,17.42Z"/><path d="M70.46,16.84v0a2.5,2.5,0,0,1,1.91-1.89V13.76H69.3v3.08Z"/><path d="M100.48,49.74c-1.3-7.52-4.39-16.49-11.73-16.49a9.39,9.39,0,0,0-8.47,4.58H53.49L35.19,61.7a8.08,8.08,0,0,1,.66.65,8.85,8.85,0,0,1,1,1.3L50,57.72l-1.08,4.75L37.81,66a9.34,9.34,0,0,1,.32,2.53,8.79,8.79,0,0,1-1.08-.3c-.37-.13-.72-.28-1.07-.44l-.5-.25-1-.47a11.14,11.14,0,0,0-2.76-.79l-.48-.07c-.25,0-.52,0-.8-.06l-.76,0h-.23l-.76,0c-.26,0-.52,0-.75.06l-.54.07A10.83,10.83,0,0,0,24.7,67c-.4.17-.76.35-1.11.51l-.54.26c-.33.15-.67.3-1,.43a9.31,9.31,0,0,1-1.08.3,9.64,9.64,0,0,1,.34-2.63L7.08,61.17c0,1.66.08,3.31.21,4.94h0c0,.17,0,.33,0,.49l.09,1h0c0,.25,0,.51.07.76H8.4l.44,0h.05c.34,0,.66.07.95.12h0a11,11,0,0,1,2.85,1A12,12,0,0,0,18.63,71a11.94,11.94,0,0,0,5.94-1.43c.43-.2.84-.4,1.28-.57a9,9,0,0,1,3-.61h1.3a8.83,8.83,0,0,1,2.9.57c.49.18.93.39,1.4.61A12,12,0,0,0,40.43,71a12,12,0,0,0,6-1.43c.33-.15.65-.31,1-.45l-.5,2.2L49,70.9l-.5,2.33a12.84,12.84,0,0,0-2.93,1.1,10.18,10.18,0,0,1-5.11,1.23,10.13,10.13,0,0,1-5.1-1.23,11.65,11.65,0,0,0-5.8-1.39,11.65,11.65,0,0,0-5.8,1.39,10.13,10.13,0,0,1-5.1,1.23,10.13,10.13,0,0,1-5.1-1.23,13.17,13.17,0,0,0-2.87-1.08h0l-.19,0-.28-.06-.33-.05-.21,0h0c-.43,0-.89-.09-1.4-.11.12.54.24,1.08.37,1.62a8.55,8.55,0,0,1,.93.1l.31,0,.21,0,.47.1,0,0c.17,0,.32.09.47.14a14.41,14.41,0,0,1,1.78.75,11.65,11.65,0,0,0,5.8,1.39,11.65,11.65,0,0,0,5.8-1.39,10.13,10.13,0,0,1,5.1-1.23,10.2,10.2,0,0,1,5.11,1.23,11.6,11.6,0,0,0,5.79,1.39,11.65,11.65,0,0,0,5.8-1.39A14.43,14.43,0,0,1,48.09,75l-1,4.8c-.62.23-1.15.48-1.66.72a9.66,9.66,0,0,1-5,1.2,9.62,9.62,0,0,1-5-1.2,12.15,12.15,0,0,0-5.95-1.42,12.1,12.1,0,0,0-5.94,1.42,9.66,9.66,0,0,1-5,1.2,9.69,9.69,0,0,1-5-1.2L12.62,80h0l-.06,0-.14-.06h0a10.58,10.58,0,0,0-2.48-.69c.28.84.58,1.68.89,2.52h0a68.67,68.67,0,0,0,5.05,10.59c.09.16.18.32.28.47s.29.49.44.74l.33.54.43.69.38.58.43.65c.13.21.27.42.41.63l.42.6.48.69.38.54.58.8.32.43L21.7,101c7.67,9.87,18.25,18.89,31.44,26.8l1.14.69,1.13-.69c13.19-7.91,23.77-16.93,31.44-26.8l0,0,1.39-1.86c.06-.07.11-.15.17-.23.46-.63.91-1.27,1.34-1.91l.11-.16c.92-1.36,1.8-2.73,2.62-4.13a68.88,68.88,0,0,0,5.32-11.16h0c.27-.74.53-1.47.78-2.21a10.72,10.72,0,0,0-2.48.69h0L96,80l-.08,0h0l-1.05.48a10.83,10.83,0,0,1-9.91,0,13.15,13.15,0,0,0-11.89,0,10.85,10.85,0,0,1-9.92,0c-.5-.24-1-.49-1.66-.72L59.58,70.9l2.11.43h0l-1.27-5.61,6.91-6.86,4.56,3.35L79,55l7.14,7.21,4.55-3.34,8.17,8.28,2.05,2.08c.1-.72.18-1.44.25-2.17h0l0-.31c0-.15,0-.29,0-.44h0A65.29,65.29,0,0,0,100.48,49.74ZM87.06,50.8l.13-.42H89.8l.81-2.48H91l.81,2.48h2.61l.13.42-2.11,1.53.81,2.48-.35.26-2.11-1.54-2.11,1.54-.36-.26.81-2.48Zm-5.58-.3-.35.26L79,49.22l-2.11,1.54-.35-.26L77.37,48l-2.12-1.53.14-.42H78l.8-2.48h.44l.81,2.48h2.61l.13.42L80.68,48Zm-11.8,4.31-.35.26-2.11-1.54-2.11,1.54-.35-.26.8-2.48L63.45,50.8l.13-.42h2.61L67,47.9h.44l.8,2.48h2.61l.14.42-2.12,1.53ZM60.1,84.11l-2.58-.53h0l3.55,16.94h0l-6.79-2.74-6.8,2.74h0L51,83.58l-2.58.53h0L51.82,68h0l-2,.4L54.07,46h.42l4.19,22.42-2-.4h0Zm-4.44,18.65.52,16H52.37l.56-16,.09-2.6,1.26-.63,1.29.64ZM51,107.37l-.08,1a7.76,7.76,0,0,0-3.69,1A13.73,13.73,0,0,1,40.43,111a13.54,13.54,0,0,1-6.52-1.48l-.26-.13-.69-.32-.1,0a7.08,7.08,0,0,0-.91-.34l1-.8h0l0,0,.26-.23c.5.19,1,.41,1.41.63l.6.28a11.28,11.28,0,0,0,5.2,1.1,11.66,11.66,0,0,0,5.8-1.38A10,10,0,0,1,51,107Zm22.33,1.16.6-.28c.46-.22.91-.44,1.41-.63l1.27,1.07a7.22,7.22,0,0,0-1,.38l-.1.05-.59.27-.26.13A13.54,13.54,0,0,1,68.12,111a13.73,13.73,0,0,1-6.79-1.61,8,8,0,0,0-3.71-1l-.08-1,0-.35a10.06,10.06,0,0,1,4.8,1.23,11.66,11.66,0,0,0,5.8,1.38A11.28,11.28,0,0,0,73.32,108.53Zm-26.94-26,.07,0-1,4.49h0l2.67-.54-3.84,18,7.16-3.55-.18,2.42-.16,2.09a11.47,11.47,0,0,0-5.59,1.39A10.19,10.19,0,0,1,40.43,108,9.85,9.85,0,0,1,35.66,107l-.33-.15a15.17,15.17,0,0,0-1.62-.71V83.86l-.07,0-1.53,1.16v21.4l-1.43,1.2h0V84.26l2.84-2.14.13.06.57.26.28.13c.43.21.88.43,1.39.63l0,0a11.86,11.86,0,0,0,4.5.78A12,12,0,0,0,46.38,82.57Zm15.8,0a13.19,13.19,0,0,0,10.44.65l0,0c.51-.2,1-.42,1.4-.63l.08,0c.25-.13.5-.25.76-.36l.13-.06,2.84,2.14v23.4h0l-1.43-1.2V85.07l-1.6-1.21V106.1a15.17,15.17,0,0,0-1.62.71l-.33.15A9.85,9.85,0,0,1,68.12,108,10.22,10.22,0,0,1,63,106.81a11.56,11.56,0,0,0-5.61-1.39l-.17-2.1-.18-2.42,7.2,3.56-.5-2.31L60.4,86.5l2.67.54-1-4.5Z"/><path d="M72.62,89.34l.72-.31V87.26l-.12,0-.6.29a9.82,9.82,0,0,1-4.5.94,10,10,0,0,1-4.81-1.08v1.75a13,13,0,0,0,9.31.13Z"/><path d="M72.62,94.1a9.82,9.82,0,0,1-4.5.94,10.06,10.06,0,0,1-3.69-.6v1.69a12,12,0,0,0,3.69.51,11.32,11.32,0,0,0,4.5-.8l.72-.31V93.76l-.12,0Z"/><path d="M72.62,100.58a9.67,9.67,0,0,1-4.5,1,12,12,0,0,1-2.15-.18V103a14.88,14.88,0,0,0,2.15.15,11.5,11.5,0,0,0,4.5-.8c.25-.1.49-.21.72-.32v-1.77l-.12.06Z"/><polygon points="15.46 41.56 16.36 42.18 25.72 29.39 25.72 27.76 24.17 27.76 15.46 41.56"/><polygon points="68.5 73.87 68.5 68.37 66.18 68.37 66.18 69.7 66.95 69.7 66.95 73.87 68.5 73.87"/><path d="M72.91,72.39a2.17,2.17,0,0,0,4.24,0A1.49,1.49,0,0,0,76.21,71a1.34,1.34,0,0,0,.72-1.21,1.93,1.93,0,0,0-3.8,0A1.35,1.35,0,0,0,73.86,71,1.49,1.49,0,0,0,72.91,72.39ZM75,70.32a.52.52,0,1,1,.51-.52A.51.51,0,0,1,75,70.32Zm0,2.46a.57.57,0,0,1-.56-.57.56.56,0,1,1,1.12,0A.57.57,0,0,1,75,72.78Z"/><path d="M83.06,68.37,81.89,69.9A3.78,3.78,0,0,0,81,72.07a2.06,2.06,0,0,0,.75,1.53,2.53,2.53,0,0,0,1.57.48A2.17,2.17,0,0,0,85.71,72a1.85,1.85,0,0,0-1.8-2,1.82,1.82,0,0,0-.52.08l1.45-1.73Zm.27,2.86a.8.8,0,0,1,0,1.6.8.8,0,1,1,0-1.6Z"/><path d="M89.29,72.39a2.17,2.17,0,0,0,4.24,0A1.49,1.49,0,0,0,92.59,71a1.34,1.34,0,0,0,.72-1.21,1.93,1.93,0,0,0-3.8,0A1.34,1.34,0,0,0,90.23,71,1.49,1.49,0,0,0,89.29,72.39Zm2.12-2.07a.52.52,0,1,1,.51-.52A.51.51,0,0,1,91.41,70.32Zm0,2.46a.57.57,0,0,1-.56-.57.56.56,0,1,1,1.12,0A.57.57,0,0,1,91.41,72.78Z"/><path class="cls-2" d="M119.77,52.05c0-12.6,6.83-20.37,18.89-20.37s18.83,7.77,18.83,20.37-6.83,20.37-18.83,20.37S119.77,64.65,119.77,52.05Zm27.67,0c0-12.4-2.75-17.15-8.78-17.15s-8.84,4.75-8.84,17.15,2.75,17.15,8.84,17.15S147.44,64.38,147.44,52.05Z"/><path class="cls-2" d="M176.38,69.67l-.87,2.08H159.17V69.87l2.74-1.2V50.38L159.1,46v-.73l10.12-3.35h1.4l-.2,6.83h.27c1.34-3.42,3.95-6.83,8.37-6.83,3.56,0,5.7,2.07,5.7,5.36a4.58,4.58,0,0,1-4.62,4.89,4.39,4.39,0,0,1-4.63-4.69,13.41,13.41,0,0,0-4.82,4.29V68.4Z"/><path class="cls-2" d="M201.17,66.79a10.53,10.53,0,0,0,7.24-2.61l1.27,1.47c-2.14,4.83-6.23,6.77-11.92,6.77-7.64,0-13.67-4.89-13.67-14.88S190.92,41.87,199,41.87c6.57,0,11.12,3.82,11.12,10.85a19.47,19.47,0,0,1-.33,3.82H192.67C192.8,62.64,195.48,66.79,201.17,66.79Zm-8.37-13.4h9.45a11.73,11.73,0,0,0,.2-2.48c0-3.15-.87-6-4-6C195.48,45,193.33,47.7,192.8,53.39Z"/><path class="cls-2" d="M231.59,65.92C238,65.92,242,69,242,75.43c0,8.18-8.11,11.19-16.95,11.19-8.18,0-14.21-1.87-14.21-7,0-3.82,3-5.56,7.57-6.23v-.2c-3.82-.47-6-2.68-6-6.17s2.61-5.56,6.3-6.3c-3.82-1.34-6.23-4-6.23-8.37,0-5.9,4.42-10.45,12.86-10.45a25.65,25.65,0,0,1,10.72,2.21,2.84,2.84,0,0,1-.4-1.61A3.42,3.42,0,0,1,239.36,39a3.55,3.55,0,0,1,3.69,3.81,3.74,3.74,0,0,1-4.09,4,15.14,15.14,0,0,1-5.29-1.41V46a6.76,6.76,0,0,1,4,6.37c0,6.43-6.43,9.31-12.33,9.31a16.08,16.08,0,0,1-4.08-.47c-1.41.47-2.48,1.21-2.48,2.68s.8,2,2.41,2Zm-13.4,12.53c0,3.55,2.61,5.23,7.24,5.23,5.29,0,9.31-1.48,9.31-5.7,0-2.55-1.34-4.09-5.29-4.09H221A4.91,4.91,0,0,0,218.19,78.45Zm6.9-33.57c-3.41,0-4,2.61-4,7s.61,6.9,4,6.9,4.09-2.61,4.09-6.9S228.58,44.88,225.09,44.88Z"/><path class="cls-2" d="M255.44,72.42c-9,0-15-5.16-15-15.28s6-15.27,15-15.27,15,5.16,15,15.27S264.49,72.42,255.44,72.42Zm0-3.08c4.49,0,5.7-4.43,5.7-12.2S259.93,45,255.44,45s-5.69,4.42-5.69,12.19S251,69.34,255.44,69.34Z"/><path class="cls-2" d="M305.63,69.81l-.88,1.94H290.08V69.87l2.75-1.27V54c0-4.35-2.28-5.83-4.76-5.83a7.74,7.74,0,0,0-5.29,2.28V68.53l4,1.28-.87,1.94H271.25V69.87l2.75-1.2V50.31l-2.81-4.42v-.74l10.11-3.28h1.41l-.2,5.83h.27A11.47,11.47,0,0,1,293,41.87c4.89,0,8.64,3.41,8.64,10.25V68.53Z"/><path class="cls-2" d="M332.62,63.78c0-3.62-1.87-5.36-6.29-7.11l-4.83-2c-5-2-7.84-5.36-7.84-11.52,0-8,6.17-11.46,12.67-11.46a27.08,27.08,0,0,1,8.51,1.48l3.28-1.48.6,11.12-1.81.41L333.7,39c-2-2.82-4.09-4.29-7.57-4.29-3.15,0-5.3,2-5.3,5.09s1.41,4.89,5.43,6.5l5,2c6.3,2.48,9.05,6.1,9.05,12.26,0,8-6.1,11.86-13.27,11.86a18.42,18.42,0,0,1-9.24-2.15l-3.62,2.15-1.14-12.73,2.08-.4L318.42,64c2.21,3.42,4.69,5.23,8.51,5.23C330.48,69.27,332.62,67.26,332.62,63.78Z"/><path class="cls-2" d="M340.86,43.81l10.72-9.18h2v7.91h8.85L362,46h-8.31V61.83c0,3.89,1.48,5.36,4.15,5.36a9.67,9.67,0,0,0,5-1.4l.67,1.6a11.14,11.14,0,0,1-9.71,5c-5.23,0-8.85-2.61-8.85-9.45V46h-4Z"/><path class="cls-2" d="M388.77,65.32c0,3,1.07,3.68,4.22,3.35l.2,1.34c-1.67,1.6-3.89,2.41-7,2.41-2.89,0-5.3-1.21-5.83-4.29l-.21-.07c-1.4,3-4.48,4.36-8.1,4.36-4.49,0-8.18-2.48-8.18-8,0-5.9,4.69-8.78,12.13-8.78a17.53,17.53,0,0,1,4,.54V53.59c0-3.88-2.48-5.83-6.43-5.83a16.05,16.05,0,0,0-8,2l-.81-1.94c2.88-3.89,7.51-6,13-6s11,2.48,11,10.65Zm-10.25-6.64c-4,0-6.23,1-6.23,4.56,0,2.48,1.47,4.15,3.81,4.15A5.38,5.38,0,0,0,380,66V58.68Z"/><path class="cls-2" d="M390,43.81l10.72-9.18h2v7.91h8.85L411.08,46h-8.31V61.83c0,3.89,1.47,5.36,4.15,5.36a9.67,9.67,0,0,0,5-1.4l.67,1.6a11.16,11.16,0,0,1-9.71,5c-5.23,0-8.85-2.61-8.85-9.45V46h-4Z"/><path class="cls-2" d="M429,66.79a10.53,10.53,0,0,0,7.24-2.61l1.27,1.47c-2.14,4.83-6.23,6.77-11.92,6.77C418,72.42,412,67.53,412,57.54s6.83-15.67,14.94-15.67c6.57,0,11.12,3.82,11.12,10.85a20.27,20.27,0,0,1-.33,3.82H420.52C420.66,62.64,423.34,66.79,429,66.79Zm-8.37-13.4h9.45a11.73,11.73,0,0,0,.2-2.48c0-3.15-.87-6-4-6C423.34,45,421.19,47.7,420.66,53.39Z"/><path d="M153.87,111.4c0,9.79-6.5,14.75-15,14.75-9.05,0-15.28-3.62-15.28-14V89.76l-5-1.54.47-2.14h15.14l.54,2.14-5,1.54V111.2c0,7.64,3.22,11.19,9.65,11.19,6.23,0,10.52-3.55,10.52-11.65v-21l-5-1.54.53-2.14h12.93l.54,2.14-5,1.54Z"/><path d="M188.38,123.53l-.87,2H174.64V123.6l3.15-1.14V105.91c0-4.29-2.68-5.16-5-5.16a11.06,11.06,0,0,0-6.83,2.68v18.83l4.69,1.27-.87,2H157V123.6l3.15-1.07V103l-3.21-3.62v-.73l8-3.09h1l-.2,5.7H166a11.31,11.31,0,0,1,9.78-5.7c3.89,0,7.91,2.35,7.91,9.18v17.49Z"/><path d="M202.85,123.53l-.87,2H189.11V123.6l3.15-1.07V103l-3.21-3.62v-.73l8-3.09h1.07v26.67Zm-7.71-40.87A4.16,4.16,0,1,1,191,86.82,4.09,4.09,0,0,1,195.14,82.66Z"/><path d="M223.15,99.68l-4.42-1.47.4-1.95H230l.4,1.95-3.08,1.27-10.18,26h-3.35L203.11,99.81,200.23,98l.47-1.74H213l.47,2-4.29,1.07,4.69,11.8a51.32,51.32,0,0,1,2.41,8.1h.27a61.56,61.56,0,0,1,2.48-8.17Z"/><path d="M243.05,121.79a13.28,13.28,0,0,0,8.3-2.75l.88,1.54c-2.42,3.69-5.83,5.57-11,5.57-7.17,0-12.87-5-12.87-15s6.3-15.55,13.81-15.55c6,0,10.38,3.75,10.38,10.52a17.14,17.14,0,0,1-.33,3.49H234C234,117.3,237.42,121.79,243.05,121.79Zm-8.85-15.07h12.26a15.73,15.73,0,0,0,.07-1.81c0-4.23-1.67-6.44-5.16-6.44C238.16,98.47,235.14,101,234.2,106.72Z"/><path d="M268.71,123.47l-.87,2H253.63V123.6l3.15-1.07V103l-3.22-3.62v-.73l8-3.09h1l-.2,6.9h.27c1.67-3.75,4.69-7,8.51-7,3.15,0,4.95,1.74,4.95,4.35a3.78,3.78,0,0,1-3.88,4.09c-2.41,0-3.82-1.74-3.82-4.09-2.28.87-4.09,2.88-5.76,5.36v17Z"/><path d="M277.89,116c2.81,6,5.42,7.57,9,7.57,3,0,5-1.07,5-4.22,0-2.55-1.48-3.95-4.83-5.09L283.31,113c-4-1.41-6.63-3.89-6.63-8.85,0-5.76,4.15-8.51,9.78-8.51a14.07,14.07,0,0,1,5.36,1.21L295,95.66l.53,8.58-1.4.46c-2.88-5-5.23-6.36-8.11-6.36s-4.56,1.61-4.56,4,1.21,4,4.49,5.09l3.82,1.27c4.42,1.55,7.17,3.89,7.17,9,0,6-4.49,8.45-10.45,8.45a15.75,15.75,0,0,1-6.63-1.55l-3,1.55-.6-9.65Z"/><path d="M312.52,123.53l-.87,2H298.79V123.6l3.15-1.07V103l-3.22-3.62v-.73l8-3.09h1.07v26.67Zm-7.7-40.87a4.16,4.16,0,1,1-4.16,4.16A4.09,4.09,0,0,1,304.82,82.66Z"/><path d="M311.05,97.54l8.37-9.25h1.34v8h9.79l-.47,3.15h-9.32v17.42c0,3.75,1.61,5.3,4.43,5.3a11.36,11.36,0,0,0,5.42-1.41l.67,1.67c-2.21,2.42-4.75,3.76-9.11,3.76s-7.3-2.35-7.3-8.31V99.41h-3.82Z"/><path d="M330.61,99.81,327.73,98l.47-1.74h12.39l.47,2-4.28,1.07,4.75,12.6a36.93,36.93,0,0,1,2.21,8.51H344s1.14-4.29,2.55-8.58l3.95-12.19-4.42-1.47.4-1.95h10.72l.4,1.95-3.08,1.27-9.31,25.39C341,136.33,337.45,140,332,140c-3.48,0-5.36-2-5.36-4.56a3.57,3.57,0,0,1,3.82-3.88,3.27,3.27,0,0,1,3.42,3.41,4,4,0,0,1-.67,2.28c2.68,0,6.16-4.89,8-10.72Z"/></g></g></svg>